<svg width="174" height="38" viewBox="0 0 174 38" fill="none" xmlns="http://www.w3.org/2000/svg">
<g clip-path="url(#clip0_10:4)">
<path d="M28.08 37.93H14C11.89 37.9785 9.80461 37.4697 7.95408 36.4549C6.10355 35.4401 4.5534 33.9552 3.46 32.15C1.05021 28.3301 -0.15531 23.8738 2.72505e-06 19.36C-0.141404 14.7263 1.08269 10.1534 3.52 6.20999C6.12 2.20999 9.60334 0.209991 13.97 0.209991H32.42V8.20999H15.36C13.3 8.20999 11.6833 9.29999 10.51 11.48C9.39167 13.7323 8.84883 16.2266 8.93 18.74C8.85725 21.3652 9.41989 23.969 10.57 26.33C11.77 28.63 13.36 29.79 15.36 29.79H30.75L28.08 37.93Z" fill="white"/>
<path d="M69.6 37.93H60.67L50.8 8.87001C50.74 8.56001 50.53 8.41001 50.16 8.41001C49.9992 8.40162 49.8395 8.44077 49.7007 8.52258C49.562 8.60438 49.4505 8.72522 49.38 8.87001L39.74 37.93H30.68C31.2 36.13 32.3067 32.5633 34 27.23C35.6933 21.8967 37.36 16.85 39 12.09C39.9115 9.08035 41.0035 6.12833 42.27 3.25001C43.0796 2.1419 44.2004 1.29954 45.49 0.830012C48.4775 -0.276548 51.7625 -0.276548 54.75 0.830012C56.0482 1.29863 57.1789 2.14058 58 3.25001C58.4533 3.86334 59.5633 6.78668 61.33 12.02C62.4433 15.24 64.0667 20.29 66.2 27.17C67.52 31.35 68.6533 34.9367 69.6 37.93Z" fill="white"/>
<path d="M92.62 23H84.62C83.7658 22.9215 82.9061 23.0718 82.1293 23.4356C81.3525 23.7994 80.6866 24.3635 80.2 25.07C79.567 26.143 79.2547 27.375 79.3 28.62V37.9H71.14V25.41C71.0171 22.7936 71.8012 20.215 73.36 18.11C75.1 16 77.64 14.87 81 14.87H91.23C91.6494 14.8872 92.067 14.8057 92.4491 14.632C92.8312 14.4583 93.1672 14.1973 93.43 13.87C93.9428 13.2181 94.2148 12.4092 94.2 11.58C94.2296 10.7289 93.9686 9.89304 93.46 9.20999C93.2027 8.86379 92.8655 8.58483 92.4773 8.3968C92.0891 8.20878 91.6612 8.11725 91.23 8.12999H71.14V0.12999H92.62C94.0839 0.0721583 95.5405 0.364015 96.8692 0.981376C98.1978 1.59874 99.3602 2.52383 100.26 3.67999C101.987 5.93249 102.881 8.71322 102.79 11.55C102.875 14.3768 101.982 17.1463 100.26 19.39C99.3665 20.5572 98.2069 21.4938 96.8779 22.1217C95.5489 22.7497 94.089 23.0508 92.62 23V23Z" fill="white"/>
<path d="M113.42 37.93H105.07V14.08L113.42 10.73V37.93Z" fill="white"/>
<path d="M113.42 8.15001L105.07 11.5V0.200012H113.42V8.15001Z" fill="white"/>
<path d="M141.24 8.16H132.71V37.93H124.46V8.16H115.96V0.190002H141.24V8.16Z" fill="white"/>
<path d="M173.67 37.93H164.73L154.87 8.87001C154.81 8.56001 154.6 8.41001 154.23 8.41001C154.069 8.40162 153.909 8.44077 153.771 8.52258C153.632 8.60438 153.52 8.72522 153.45 8.87001L143.81 37.93H134.75C135.27 36.13 136.377 32.5633 138.07 27.23C139.763 21.8967 141.43 16.85 143.07 12.09C143.981 9.08035 145.073 6.12833 146.34 3.25001C147.15 2.1419 148.27 1.29954 149.56 0.830012C152.547 -0.276548 155.833 -0.276548 158.82 0.830012C160.111 1.30206 161.234 2.14372 162.05 3.25001C162.497 3.86334 163.607 6.78668 165.38 12.02C166.48 15.24 168.11 20.29 170.27 27.17C171.59 31.35 172.723 34.9367 173.67 37.93Z" fill="white"/>
</g>
<defs>
<clipPath id="clip0_10:4">
<rect width="173.67" height="37.93" fill="white"/>
</clipPath>
</defs>
</svg>
